<?xml version="1.0" encoding="utf-8"?>
<!-- Generator: Adobe Illustrator 16.0.2, SVG Export Plug-In . SVG Version: 6.00 Build 0)  -->
<!DOCTYPE svg PUBLIC "-//W3C//DTD SVG 1.1//EN" "http://www.w3.org/Graphics/SVG/1.1/DTD/svg11.dtd">
<svg version="1.1" id="Layer_1" xmlns="http://www.w3.org/2000/svg" xmlns:xlink="http://www.w3.org/1999/xlink" x="0px" y="0px"
	 width="18.404px" height="19.167px" viewBox="296.798 386.416 18.404 19.167"
	 enable-background="new 296.798 386.416 18.404 19.167" xml:space="preserve">
<path d="M313.856,393.462l-1.875,0.014l-0.014-1.877c-0.005-0.582-0.385-1.069-0.913-1.249v-3.536c0-0.221-0.178-0.399-0.398-0.399
	h-13.46c-0.22,0-0.398,0.178-0.398,0.399v18.37c0,0.161,0.096,0.305,0.242,0.366c0.147,0.063,0.318,0.032,0.433-0.08l6.454-6.213
	l6.454,6.213c0.075,0.074,0.174,0.112,0.275,0.112c0.052,0,0.105-0.01,0.156-0.032c0.147-0.062,0.242-0.205,0.242-0.366v-5.881
	c0.555-0.165,0.964-0.675,0.959-1.282L312,396.144l1.876-0.013c0.735-0.004,1.331-0.607,1.326-1.343
	C315.195,394.058,314.597,393.462,313.856,393.462z M304.203,398.418c-0.154-0.148-0.398-0.148-0.553,0l-6.054,5.83v-17.035h12.662
	v3.123c-0.556,0.164-0.963,0.675-0.958,1.282l0.013,1.877l-1.876,0.013c-0.735,0.006-1.331,0.607-1.325,1.345
	c0.006,0.729,0.605,1.324,1.343,1.324l1.877-0.013l0.013,1.877c0.005,0.581,0.388,1.072,0.913,1.248v4.959L304.203,398.418z
	 M313.87,395.333l-2.274,0.017c-0.222,0.001-0.398,0.181-0.397,0.401l0.017,2.275c0.003,0.296-0.236,0.539-0.533,0.541v0.042
	c-0.001,0-0.003,0-0.004,0v-0.044c-0.292,0-0.534-0.238-0.536-0.531l-0.017-2.276c-0.001-0.106-0.043-0.207-0.117-0.281
	c-0.076-0.074-0.177-0.115-0.281-0.115c-0.001,0-0.002,0-0.002,0l-2.279,0.015c-0.294,0-0.534-0.239-0.537-0.532
	c-0.002-0.297,0.237-0.538,0.533-0.54l2.276-0.016c0.105-0.001,0.206-0.044,0.281-0.119c0.073-0.075,0.114-0.177,0.112-0.283
	l-0.014-2.275c-0.004-0.296,0.237-0.539,0.534-0.541c0.295,0,0.535,0.239,0.54,0.532l0.015,2.276c0,0.106,0.042,0.207,0.118,0.281
	c0.075,0.075,0.168,0.112,0.283,0.115l2.279-0.016c0.293,0,0.533,0.239,0.536,0.532C314.406,395.089,314.166,395.332,313.87,395.333
	z"/>
</svg>
