<?xml version="1.0" encoding="utf-8"?>
<!-- Generator: Adobe Illustrator 16.0.2, SVG Export Plug-In . SVG Version: 6.00 Build 0)  -->
<!DOCTYPE svg PUBLIC "-//W3C//DTD SVG 1.1//EN" "http://www.w3.org/Graphics/SVG/1.1/DTD/svg11.dtd">
<svg version="1.1" id="Layer_1" xmlns="http://www.w3.org/2000/svg" xmlns:xlink="http://www.w3.org/1999/xlink" x="0px" y="0px"
	 width="40px" height="40px" viewBox="286 376 40 40" enable-background="new 286 376 40 40" xml:space="preserve">
<path fill="#28B446" d="M318.024,410.979L318.024,410.979c-3.291,2.646-7.473,4.23-12.024,4.23c-7.315,0-13.675-4.089-16.919-10.106
	l6.225-5.095c1.622,4.329,5.798,7.411,10.694,7.411c2.104,0,4.076-0.569,5.768-1.563L318.024,410.979z"/>
<path fill="#518EF8" d="M324.873,392.412c0.221,1.162,0.335,2.362,0.335,3.588c0,1.375-0.145,2.717-0.42,4.011
	c-0.935,4.403-3.378,8.248-6.763,10.969l-0.001-0.001l-6.257-5.122c2.246-1.317,4.001-3.378,4.926-5.846h-10.271v-7.599h10.421
	H324.873L324.873,392.412z"/>
<path fill="#F14336" d="M318.261,381.214l-6.223,5.094c-1.751-1.094-3.82-1.727-6.038-1.727c-5.007,0-9.261,3.223-10.802,7.708
	l-6.257-5.123h-0.001c3.197-6.164,9.637-10.375,17.061-10.375C310.661,376.792,314.934,378.452,318.261,381.214z"/>
<path fill="#FBBB00" d="M295.306,400.008l-6.225,5.095c-1.46-2.709-2.289-5.809-2.289-9.103c0-3.185,0.775-6.189,2.148-8.834h0.001
	l6.257,5.123c-0.399,1.163-0.616,2.412-0.616,3.711C294.582,397.41,294.837,398.761,295.306,400.008z"/>
<path fill="#333333" d="M325.65,392.264c-0.071-0.374-0.397-0.644-0.777-0.644h-18.451c-0.438,0-0.792,0.354-0.792,0.792v7.599
	c0,0.438,0.354,0.791,0.792,0.791h9.06c-0.919,1.809-2.349,3.336-4.115,4.372c-1.619,0.951-3.476,1.453-5.367,1.453
	c-4.407,0-8.408-2.771-9.954-6.898c-0.447-1.188-0.673-2.442-0.673-3.729c0-1.182,0.193-2.344,0.573-3.454
	c1.475-4.291,5.515-7.173,10.054-7.173c1.994,0,3.938,0.556,5.618,1.606c0.288,0.18,0.658,0.156,0.921-0.059l6.223-5.095
	c0.184-0.149,0.29-0.373,0.29-0.609c0.001-0.236-0.104-0.461-0.285-0.612c-3.577-2.97-8.11-4.605-12.767-4.605
	c-7.501,0-14.308,4.139-17.763,10.801c-1.463,2.819-2.237,6-2.237,9.199c0,3.309,0.824,6.586,2.384,9.479
	c3.5,6.49,10.25,10.521,17.616,10.521c4.542,0,8.988-1.563,12.521-4.403l0,0c3.589-2.886,6.09-6.941,7.041-11.421
	c0.29-1.363,0.438-2.769,0.438-4.176C326,394.743,325.883,393.486,325.65,392.264z M306,377.583c3.965,0,7.832,1.288,10.996,3.643
	l-5.031,4.119c-1.815-1.019-3.865-1.555-5.965-1.555c-4.838,0-9.182,2.853-11.137,7.202l-4.916-4.025
	C293.213,381.162,299.307,377.583,306,377.583z M287.583,396c0-2.657,0.549-5.205,1.631-7.586l5.067,4.148
	c-0.326,1.113-0.492,2.267-0.492,3.438c0,1.283,0.197,2.541,0.586,3.745l-5.032,4.119C288.19,401.421,287.583,398.723,287.583,396z
	 M290.097,405.294l4.896-4.008c0.898,1.874,2.257,3.484,3.976,4.697c2.064,1.457,4.496,2.227,7.031,2.227
	c1.986,0,3.938-0.484,5.681-1.401l5.067,4.148c-3.14,2.267-6.835,3.46-10.748,3.46C299.434,414.417,293.399,410.938,290.097,405.294
	z M324.014,399.846c-0.831,3.917-2.951,7.481-5.993,10.106l-4.915-4.023c1.963-1.407,3.48-3.376,4.329-5.641
	c0.091-0.243,0.058-0.516-0.091-0.729c-0.147-0.213-0.391-0.341-0.65-0.341h-9.479v-6.016h16.991
	c0.141,0.92,0.212,1.858,0.212,2.797C324.417,397.297,324.281,398.591,324.014,399.846z"/>
</svg>
