<?xml version="1.0" encoding="utf-8"?>
<!-- Generator: Adobe Illustrator 16.0.2, SVG Export Plug-In . SVG Version: 6.00 Build 0)  -->
<!DOCTYPE svg PUBLIC "-//W3C//DTD SVG 1.1//EN" "http://www.w3.org/Graphics/SVG/1.1/DTD/svg11.dtd">
<svg version="1.1" id="Layer_1" xmlns="http://www.w3.org/2000/svg" xmlns:xlink="http://www.w3.org/1999/xlink" x="0px" y="0px"
	 width="40px" height="40px" viewBox="286 376 40 40" enable-background="new 286 376 40 40" xml:space="preserve">
<path fill="#FBBB00" d="M294.997,400.123l-1.376,5.137l-5.028,0.106c-1.503-2.787-2.355-5.977-2.355-9.366
	c0-3.277,0.797-6.368,2.21-9.089h0.001l4.477,0.821l1.961,4.45c-0.41,1.197-0.634,2.481-0.634,3.818
	C294.251,397.451,294.514,398.841,294.997,400.123z"/>
<path fill="#518EF8" d="M325.418,392.308c0.228,1.195,0.346,2.43,0.346,3.692c0,1.415-0.148,2.795-0.433,4.126
	c-0.962,4.531-3.476,8.487-6.958,11.286l-0.001-0.001l-5.639-0.287l-0.799-4.982c2.311-1.355,4.117-3.477,5.068-6.016h-10.568
	v-7.818h10.722H325.418L325.418,392.308z"/>
<path fill="#28B446" d="M318.372,411.411L318.372,411.411c-3.386,2.724-7.688,4.353-12.372,4.353
	c-7.526,0-14.07-4.207-17.408-10.397l6.405-5.243c1.669,4.455,5.966,7.625,11.003,7.625c2.165,0,4.193-0.585,5.935-1.606
	L318.372,411.411z"/>
<path fill="#F14336" d="M318.615,380.786l-6.402,5.242c-1.802-1.126-3.932-1.777-6.213-1.777c-5.151,0-9.529,3.316-11.114,7.93
	l-6.438-5.271h-0.001c3.289-6.342,9.916-10.674,17.554-10.674C310.795,376.236,315.192,377.944,318.615,380.786z"/>
</svg>
